<svg width="25" height="25" viewBox="0 0 25 25" fill="none" xmlns="http://www.w3.org/2000/svg">
<path d="M24 12.8988V12.8928C24 9.342 22.454 6.15315 19.999 3.96026L19.987 3.95026C19.9567 3.91758 19.9228 3.8884 19.886 3.86327L19.884 3.86227C17.7036 1.94789 14.8996 0.894759 11.998 0.900413C8.966 0.900413 6.198 2.02636 4.088 3.88427L4.101 3.87327C4.07557 3.89256 4.05212 3.91433 4.031 3.93826V3.93926C2.76253 5.0624 1.7472 6.44223 1.05226 7.98736C0.357326 9.53248 -0.00134689 11.2076 3.80066e-06 12.9018C3.80066e-06 16.4516 1.544 19.6405 3.997 21.8344L4.009 21.8444C4.04077 21.8804 4.07631 21.9129 4.115 21.9414L4.117 21.9424C6.29684 23.8539 9.09869 24.9055 11.998 24.9002C14.9109 24.9047 17.7247 23.8434 19.909 21.9164L19.896 21.9274C21.1865 20.8055 22.2209 19.4195 22.9293 17.8632C23.6377 16.307 24.0035 14.6167 24.002 12.9068V12.8998L24 12.8988ZM19.538 20.7034C18.9436 20.2226 18.3043 19.8 17.629 19.4415L17.564 19.4095C18.177 17.6426 18.546 15.6057 18.581 13.4868V13.4708H22.842C22.6983 16.2121 21.5184 18.7963 19.541 20.7004L19.538 20.7034ZM12.572 19.1985C13.855 19.2675 15.054 19.5495 16.16 20.0085L16.088 19.9825C15.202 22.0024 13.955 23.3903 12.572 23.6953V19.1985ZM12.572 18.0546V13.4708H17.44C17.4014 15.369 17.0722 17.25 16.464 19.0485L16.503 18.9175C15.2615 18.4073 13.941 18.1156 12.6 18.0556L12.573 18.0546H12.572ZM12.572 12.3268V7.74307C13.9492 7.68022 15.305 7.37876 16.579 6.85212L16.5 6.88112C17.055 8.50004 17.396 10.3659 17.44 12.3058V12.3268H12.572ZM12.572 6.59913V2.10435C13.955 2.40934 15.202 3.79127 16.088 5.81717C15.054 6.24715 13.855 6.52813 12.601 6.59813L12.572 6.59913ZM15.426 2.59933C16.6044 2.99234 17.7064 3.58494 18.684 4.35124L18.661 4.33324C18.218 4.68123 17.721 5.00921 17.197 5.2942L17.141 5.32219C16.7176 4.32297 16.1354 3.39876 15.417 2.58533L15.426 2.59633V2.59933ZM11.426 2.10735V6.59913C10.1925 6.53621 8.97891 6.26225 7.838 5.78917L7.91 5.81517C8.8 3.79527 10.045 2.40834 11.428 2.10335L11.426 2.10735ZM6.858 5.31919C6.31593 5.02757 5.79943 4.69072 5.314 4.31224L5.338 4.33024C6.28714 3.58643 7.35472 3.00771 8.496 2.61833L8.572 2.59533C7.87242 3.38672 7.30238 4.28376 6.883 5.2532L6.858 5.31819V5.31919ZM11.428 7.74207V12.3258H6.56C6.604 10.3649 6.945 8.49904 7.539 6.74912L7.5 6.88012C8.74106 7.38956 10.0608 7.68083 11.401 7.74107L11.428 7.74207ZM11.428 13.4698V18.0536C10.0508 18.1164 8.69504 18.4179 7.421 18.9445L7.5 18.9155C6.945 17.2976 6.604 15.4307 6.56 13.4908V13.4698H11.428ZM11.428 19.1975V23.6923C10.045 23.3873 8.798 22.0054 7.912 19.9795C8.946 19.5495 10.145 19.2695 11.399 19.1995L11.428 19.1985V19.1975ZM8.578 23.1973C7.39996 22.8054 6.29794 22.2142 5.32 21.4494L5.344 21.4674C5.787 21.1194 6.284 20.7914 6.808 20.5064L6.864 20.4784C7.28389 21.4781 7.86606 22.4015 8.587 23.2113L8.578 23.2013V23.1973ZM17.142 20.4774C17.722 20.7924 18.219 21.1194 18.686 21.4844L18.662 21.4664C17.7129 22.2102 16.6453 22.7889 15.504 23.1783L15.428 23.2013C16.1276 22.4103 16.6976 21.5136 17.117 20.5444L17.142 20.4794V20.4774ZM22.842 12.3268H18.581C18.5503 10.2579 18.1933 8.20676 17.523 6.24915L17.564 6.38714C18.2704 6.01522 18.9392 5.57587 19.561 5.07521L19.537 5.0932C21.5103 6.99014 22.6906 9.56482 22.84 12.2978L22.841 12.3258L22.842 12.3268ZM4.462 5.09421C5.038 5.56218 5.685 5.99116 6.371 6.35614L6.436 6.38814C5.823 8.15505 5.454 10.192 5.419 12.3108V12.3268H1.157C1.3007 9.58558 2.48065 7.00132 4.458 5.09721L4.461 5.09421H4.462ZM1.158 13.4708H5.419C5.44966 15.5397 5.80672 17.5909 6.477 19.5485L6.436 19.4105C5.685 19.8095 5.039 20.2385 4.439 20.7224L4.463 20.7044C2.48974 18.8075 1.30937 16.2328 1.16 13.4998L1.159 13.4718L1.158 13.4708Z" fill="#222222"/>
</svg>
