<svg width="117" height="18" viewBox="0 0 117 18" fill="none" xmlns="http://www.w3.org/2000/svg">
<path d="M0.721591 17.498V0.0435009H7.40341C8.66477 0.0435009 9.71307 0.242364 10.5483 0.640091C11.3892 1.03214 12.017 1.56907 12.4318 2.25089C12.8523 2.93271 13.0625 3.70543 13.0625 4.56907C13.0625 5.2793 12.9261 5.88725 12.6534 6.39293C12.3807 6.89293 12.0142 7.29918 11.554 7.61168C11.0938 7.92418 10.5795 8.14861 10.0114 8.28498V8.45543C10.6307 8.48952 11.2244 8.67986 11.7926 9.02646C12.3665 9.36736 12.8352 9.85032 13.1989 10.4753C13.5625 11.1003 13.7443 11.856 13.7443 12.7424C13.7443 13.6458 13.5256 14.4583 13.0881 15.1799C12.6506 15.8958 11.9915 16.4611 11.1108 16.8759C10.2301 17.2907 9.12216 17.498 7.78693 17.498H0.721591ZM3.88352 14.856H7.28409C8.43182 14.856 9.25852 14.6373 9.7642 14.1998C10.2756 13.7566 10.5312 13.1884 10.5312 12.4952C10.5312 11.9782 10.4034 11.5123 10.1477 11.0975C9.89205 10.677 9.52841 10.3475 9.05682 10.1088C8.58523 9.86452 8.02273 9.74237 7.36932 9.74237H3.88352V14.856ZM3.88352 7.4668H7.01136C7.55682 7.4668 8.0483 7.36736 8.4858 7.1685C8.9233 6.96396 9.26705 6.67702 9.51705 6.30771C9.77273 5.93271 9.90057 5.48952 9.90057 4.97816C9.90057 4.30202 9.66193 3.7452 9.18466 3.3077C8.71307 2.8702 8.01136 2.65145 7.07955 2.65145H3.88352V7.4668ZM18.7365 17.498H15.3615L21.5064 0.0435009H25.4098L31.5632 17.498H28.1882L23.5263 3.62305H23.3899L18.7365 17.498ZM18.8473 10.6543H28.0518V13.1941H18.8473V10.6543ZM30.8878 0.0435009H34.4588L38.7287 7.76509H38.8991L43.169 0.0435009H46.7401L40.3906 10.9867V17.498H37.2372V10.9867L30.8878 0.0435009ZM49.3139 2.69407V0.0435009H63.2401V2.69407H57.8452V17.498H54.7088V2.69407H49.3139ZM76.9276 0.0435009H80.0895V11.4469C80.0895 12.6969 79.794 13.7963 79.2031 14.7452C78.6179 15.6941 77.794 16.4355 76.7315 16.9696C75.669 17.498 74.4276 17.7623 73.0071 17.7623C71.581 17.7623 70.3366 17.498 69.2741 16.9696C68.2116 16.4355 67.3878 15.6941 66.8026 14.7452C66.2173 13.7963 65.9247 12.6969 65.9247 11.4469V0.0435009H69.0866V11.1827C69.0866 11.91 69.2457 12.5577 69.5639 13.1259C69.8878 13.6941 70.3423 14.1401 70.9276 14.464C71.5128 14.7821 72.206 14.9412 73.0071 14.9412C73.8082 14.9412 74.5014 14.7821 75.0866 14.464C75.6776 14.1401 76.1321 13.6941 76.4503 13.1259C76.7685 12.5577 76.9276 11.91 76.9276 11.1827V0.0435009ZM97.87 0.0435009V17.498H95.0575L86.8331 5.60884H86.6882V17.498H83.5263V0.0435009H86.3558L94.5717 11.9412H94.7251V0.0435009H97.87ZM103.557 17.498H100.182L106.327 0.0435009H110.23L116.384 17.498H113.009L108.347 3.62305H108.21L103.557 17.498ZM103.668 10.6543H112.872V13.1941H103.668V10.6543Z" fill="#407FF0"/>
</svg>
