<svg width="22" height="22" viewBox="0 0 22 22" fill="none" xmlns="http://www.w3.org/2000/svg">
<path d="M5.01562 11.1093L10.9235 5.20573L16.8315 11.1093L10.9235 17.0128L5.01562 11.1093Z" fill="white"/>
<path d="M10.9248 2.25486C12.6775 2.25486 14.3909 2.77422 15.8482 3.74726C17.3055 4.72029 18.4414 6.1033 19.1121 7.7214C19.7829 9.3395 19.9584 11.12 19.6164 12.8378C19.2745 14.5555 18.4305 16.1334 17.1911 17.3719C15.9518 18.6103 14.3727 19.4537 12.6537 19.7954C10.9346 20.137 9.15281 19.9617 7.53351 19.2914C5.91422 18.6212 4.53018 17.4862 3.55642 16.0299C2.58266 14.5737 2.06292 12.8616 2.06292 11.1102C2.06566 8.76245 3.0002 6.51165 4.66153 4.85155C6.32287 3.19145 8.57533 2.2576 10.9248 2.25486ZM10.9248 0.778976C8.87998 0.778976 6.88106 1.38489 5.18084 2.5201C3.48062 3.65531 2.15547 5.26882 1.37294 7.15661C0.590417 9.04439 0.385673 11.1217 0.784601 13.1257C1.18353 15.1298 2.16821 16.9706 3.61413 18.4155C5.06004 19.8603 6.90225 20.8443 8.9078 21.2429C10.9133 21.6415 12.9921 21.4369 14.8813 20.655C16.7705 19.873 18.3852 18.5489 19.5213 16.8499C20.6573 15.1509 21.2637 13.1535 21.2637 11.1102C21.2637 8.37018 20.1744 5.7424 18.2355 3.80492C16.2966 1.86744 13.6668 0.778976 10.9248 0.778976Z" fill="white"/>
</svg>
