<svg width="20" height="20" viewBox="0 0 20 20" fill="none" xmlns="http://www.w3.org/2000/svg">
<path d="M9.05096 1.58689C9.35045 0.665859 10.6535 0.665859 10.9529 1.58689L12.5088 6.37173C12.6427 6.78365 13.0266 7.0625 13.4598 7.0625H18.493C19.4619 7.0625 19.8646 8.3025 19.0805 8.87173L15.0098 11.8271C14.6591 12.0817 14.5123 12.5333 14.6463 12.9455L16.2015 17.7283C16.501 18.6495 15.4469 19.4158 14.663 18.8467L10.5895 15.8893C10.2391 15.635 9.76482 15.635 9.41445 15.8893L5.34091 18.8467C4.55706 19.4158 3.50289 18.6495 3.80242 17.7283L5.35759 12.9455C5.49162 12.5333 5.34485 12.0817 4.9941 11.8271L0.923413 8.87173C0.139354 8.3025 0.542011 7.0625 1.51091 7.0625H6.54414C6.97728 7.0625 7.36119 6.78365 7.49513 6.37173L9.05096 1.58689Z" fill="white"/>
</svg>
